<svg width="1382" height="188" viewBox="0 0 1382 188" fill="none" xmlns="http://www.w3.org/2000/svg">
<path d="M290.557 1.69305C312.698 64.2377 334.246 124.083 356.796 187.68C334.109 187.68 292.926 187.36 292.926 187.36L286.32 166.496L258.212 166.45L231.425 166.405L220.491 187.68C220.491 187.68 174.115 187.68 149.104 187.68C156.211 167.548 162.999 148.058 169.969 128.612C183.5 91.0033 215.252 1.32703 215.252 1.32703C215.252 1.32703 217.029 1.32703 229.967 1.32703C249.693 1.41853 269.419 1.69305 290.557 1.69305ZM237.575 122.482C248.736 122.482 257.073 122.482 266.777 122.482C261.993 102.167 257.574 83.271 252.426 61.2637C247.142 83.0423 242.541 101.938 237.575 122.482Z" fill="white"/>
<path d="M65.1457 135.018C65.1457 152.953 65.1457 169.882 65.1457 187.725C42.413 187.725 21.776 187.725 0 187.725C0 125.73 0 64.6493 0 0C39.133 1.87588 77.3548 1.60136 114.984 6.17669C147.74 10.1572 162.409 34.0862 161.771 72.7934C161.179 106.834 146.646 124.906 114.164 130.214C99.0397 132.73 83.6872 133.279 65.1457 135.018ZM66.558 89.8593C78.1749 85.3755 88.1517 83.3166 95.5319 77.8262C98.493 75.6301 98.2197 62.4074 95.1218 60.257C87.605 54.9954 77.5826 53.3025 66.5124 49.4592C66.558 64.6036 66.558 74.715 66.558 89.8593Z" fill="white"/>
<path d="M910.853 71.4662C910.853 88.6694 910.853 102.578 910.853 117.951C893.769 117.951 877.916 117.951 860.012 117.951C859.647 124.952 859.374 130.534 858.964 138.357C879.419 138.357 898.279 138.357 918.279 138.357C918.279 155.561 918.279 170.705 918.279 187.268C877.004 187.268 836.049 187.268 793.818 187.268C793.818 125.913 793.818 64.7862 793.818 2.6991C835.184 2.6991 875.638 2.6991 917.094 2.6991C917.094 18.667 917.094 33.857 917.094 51.3805C898.553 51.3805 879.829 51.3805 859.921 51.3805C859.602 58.8841 859.328 64.0542 859.01 71.4662C876.458 71.4662 892.812 71.4662 910.853 71.4662Z" fill="white"/>
<path d="M1322.55 71.9695C1341.09 71.9695 1356.95 71.9695 1374.3 71.9695C1374.3 87.7543 1374.3 102.029 1374.3 117.86C1357.63 117.86 1341.73 117.86 1323.78 117.86C1323.37 124.814 1323.05 130.442 1322.6 138.266C1343.05 138.266 1361.87 138.266 1381.96 138.266C1381.96 155.469 1381.96 170.568 1381.96 187.176C1340.77 187.176 1299.86 187.176 1257.59 187.176C1257.59 125.958 1257.59 64.832 1257.59 2.6991C1298.82 2.6991 1339.27 2.6991 1380.77 2.6991C1380.77 18.5297 1380.77 33.7198 1380.77 51.289C1362.41 51.289 1343.64 51.289 1323.74 51.289C1323.33 58.7926 1323.05 63.9627 1322.55 71.9695Z" fill="white"/>
<path d="M1040.74 188C1017.59 188 997.366 188 974.36 188C974.36 146.639 974.36 105.827 974.36 63.9627C960.146 63.3221 948.62 62.8188 935.91 62.224C935.91 42.3671 935.91 23.0593 935.91 2.6991C982.651 2.6991 1028.75 2.6991 1076.36 2.6991C1076.36 21.9612 1076.36 41.2691 1076.36 62.0868C1065.02 62.6816 1053.67 63.2306 1040.74 63.8712C1040.74 105.324 1040.74 145.724 1040.74 188Z" fill="white"/>
<path d="M1196.76 187.954C1173.62 187.954 1153.44 187.954 1130.39 187.954C1130.39 146.914 1130.39 106.102 1130.39 63.6427C1116.13 63.6427 1104.65 63.6427 1091.8 63.6427C1091.8 42.642 1091.8 23.3341 1091.8 2.83667C1138.27 2.83667 1184.33 2.83667 1232.03 2.83667C1232.03 21.7785 1232.03 41.0406 1232.03 62.5904C1221 62.5904 1209.66 62.5904 1196.72 62.5904C1196.76 105.141 1196.76 145.495 1196.76 187.954Z" fill="white"/>
<path d="M613.323 126.05C613.323 148.241 613.323 167.091 613.323 187.314C570.136 187.314 527.176 187.314 482.713 187.314C482.713 126.508 482.713 65.3359 482.713 2.92847C503.396 2.92847 524.078 2.92847 546.902 2.92847C546.902 43.3286 546.902 83.6371 546.902 126.05C569.589 126.05 590.272 126.05 613.323 126.05Z" fill="white"/>
<path d="M638.021 187.496C638.021 125.18 638.021 64.466 638.021 2.6991C659.661 2.6991 680.343 2.6991 703.167 2.6991C703.167 43.7397 703.167 84.0941 703.167 126.462C725.9 126.462 746.537 126.462 768.723 126.462C768.723 147.783 768.723 167.045 768.723 187.496C725.535 187.496 682.576 187.496 638.021 187.496Z" fill="white"/>
<path d="M371.511 187.177C371.511 125.273 371.511 64.6495 371.511 2.88269C393.606 2.88269 414.926 2.88269 437.75 2.88269C437.75 63.5515 437.75 124.586 437.75 187.177C416.748 187.177 394.972 187.177 371.511 187.177Z" fill="white"/>
</svg>
